<mxfile host="Electron" modified="2024-07-07T19:54:25.407Z" agent="Mozilla/5.0 (Windows NT 10.0; Win64; x64) AppleWebKit/537.36 (KHTML, like Gecko) draw.io/24.1.0 Chrome/120.0.6099.109 Electron/28.1.0 Safari/537.36" etag="o76lnbq0HynWL2tVD4B1" version="24.1.0" type="device">
  <diagram name="Page-1" id="WfEtYAXYujns82j6RdxZ">
    <mxGraphModel dx="2198" dy="1691" grid="1" gridSize="10" guides="1" tooltips="1" connect="1" arrows="1" fold="1" page="1" pageScale="1" pageWidth="850" pageHeight="1100" math="0" shadow="0">
      <root>
        <mxCell id="0" />
        <mxCell id="1" parent="0" />
        <mxCell id="IECAxgHUItjXdqh7-dgC-1" value="Convert_View" style="swimlane;fontStyle=1;align=center;verticalAlign=top;childLayout=stackLayout;horizontal=1;startSize=26;horizontalStack=0;resizeParent=1;resizeParentMax=0;resizeLast=0;collapsible=1;marginBottom=0;whiteSpace=wrap;html=1;" parent="1" vertex="1">
          <mxGeometry x="390" y="40" width="160" height="86" as="geometry" />
        </mxCell>
        <mxCell id="IECAxgHUItjXdqh7-dgC-2" value="+ field: type" style="text;strokeColor=none;fillColor=none;align=left;verticalAlign=top;spacingLeft=4;spacingRight=4;overflow=hidden;rotatable=0;points=[[0,0.5],[1,0.5]];portConstraint=eastwest;whiteSpace=wrap;html=1;" parent="IECAxgHUItjXdqh7-dgC-1" vertex="1">
          <mxGeometry y="26" width="160" height="26" as="geometry" />
        </mxCell>
        <mxCell id="IECAxgHUItjXdqh7-dgC-3" value="" style="line;strokeWidth=1;fillColor=none;align=left;verticalAlign=middle;spacingTop=-1;spacingLeft=3;spacingRight=3;rotatable=0;labelPosition=right;points=[];portConstraint=eastwest;strokeColor=inherit;" parent="IECAxgHUItjXdqh7-dgC-1" vertex="1">
          <mxGeometry y="52" width="160" height="8" as="geometry" />
        </mxCell>
        <mxCell id="IECAxgHUItjXdqh7-dgC-4" value="+ method(type): type" style="text;strokeColor=none;fillColor=none;align=left;verticalAlign=top;spacingLeft=4;spacingRight=4;overflow=hidden;rotatable=0;points=[[0,0.5],[1,0.5]];portConstraint=eastwest;whiteSpace=wrap;html=1;" parent="IECAxgHUItjXdqh7-dgC-1" vertex="1">
          <mxGeometry y="60" width="160" height="26" as="geometry" />
        </mxCell>
        <mxCell id="IECAxgHUItjXdqh7-dgC-5" value="Enter_Controller" style="swimlane;fontStyle=1;align=center;verticalAlign=top;childLayout=stackLayout;horizontal=1;startSize=26;horizontalStack=0;resizeParent=1;resizeParentMax=0;resizeLast=0;collapsible=1;marginBottom=0;whiteSpace=wrap;html=1;" parent="1" vertex="1">
          <mxGeometry x="-120" y="375" width="160" height="86" as="geometry" />
        </mxCell>
        <mxCell id="IECAxgHUItjXdqh7-dgC-6" value="+ field: type" style="text;strokeColor=none;fillColor=none;align=left;verticalAlign=top;spacingLeft=4;spacingRight=4;overflow=hidden;rotatable=0;points=[[0,0.5],[1,0.5]];portConstraint=eastwest;whiteSpace=wrap;html=1;" parent="IECAxgHUItjXdqh7-dgC-5" vertex="1">
          <mxGeometry y="26" width="160" height="26" as="geometry" />
        </mxCell>
        <mxCell id="IECAxgHUItjXdqh7-dgC-7" value="" style="line;strokeWidth=1;fillColor=none;align=left;verticalAlign=middle;spacingTop=-1;spacingLeft=3;spacingRight=3;rotatable=0;labelPosition=right;points=[];portConstraint=eastwest;strokeColor=inherit;" parent="IECAxgHUItjXdqh7-dgC-5" vertex="1">
          <mxGeometry y="52" width="160" height="8" as="geometry" />
        </mxCell>
        <mxCell id="IECAxgHUItjXdqh7-dgC-8" value="+ method(type): type" style="text;strokeColor=none;fillColor=none;align=left;verticalAlign=top;spacingLeft=4;spacingRight=4;overflow=hidden;rotatable=0;points=[[0,0.5],[1,0.5]];portConstraint=eastwest;whiteSpace=wrap;html=1;" parent="IECAxgHUItjXdqh7-dgC-5" vertex="1">
          <mxGeometry y="60" width="160" height="26" as="geometry" />
        </mxCell>
        <mxCell id="IECAxgHUItjXdqh7-dgC-9" value="Convert_Model" style="swimlane;fontStyle=1;align=center;verticalAlign=top;childLayout=stackLayout;horizontal=1;startSize=26;horizontalStack=0;resizeParent=1;resizeParentMax=0;resizeLast=0;collapsible=1;marginBottom=0;whiteSpace=wrap;html=1;" parent="1" vertex="1">
          <mxGeometry x="60" y="40" width="160" height="86" as="geometry" />
        </mxCell>
        <mxCell id="IECAxgHUItjXdqh7-dgC-10" value="+ field: type" style="text;strokeColor=none;fillColor=none;align=left;verticalAlign=top;spacingLeft=4;spacingRight=4;overflow=hidden;rotatable=0;points=[[0,0.5],[1,0.5]];portConstraint=eastwest;whiteSpace=wrap;html=1;" parent="IECAxgHUItjXdqh7-dgC-9" vertex="1">
          <mxGeometry y="26" width="160" height="26" as="geometry" />
        </mxCell>
        <mxCell id="IECAxgHUItjXdqh7-dgC-11" value="" style="line;strokeWidth=1;fillColor=none;align=left;verticalAlign=middle;spacingTop=-1;spacingLeft=3;spacingRight=3;rotatable=0;labelPosition=right;points=[];portConstraint=eastwest;strokeColor=inherit;" parent="IECAxgHUItjXdqh7-dgC-9" vertex="1">
          <mxGeometry y="52" width="160" height="8" as="geometry" />
        </mxCell>
        <mxCell id="IECAxgHUItjXdqh7-dgC-12" value="+ method(type): type" style="text;strokeColor=none;fillColor=none;align=left;verticalAlign=top;spacingLeft=4;spacingRight=4;overflow=hidden;rotatable=0;points=[[0,0.5],[1,0.5]];portConstraint=eastwest;whiteSpace=wrap;html=1;" parent="IECAxgHUItjXdqh7-dgC-9" vertex="1">
          <mxGeometry y="60" width="160" height="26" as="geometry" />
        </mxCell>
        <mxCell id="IECAxgHUItjXdqh7-dgC-13" value="Menu_Controller&lt;div&gt;&lt;br&gt;&lt;/div&gt;" style="swimlane;fontStyle=1;align=center;verticalAlign=top;childLayout=stackLayout;horizontal=1;startSize=26;horizontalStack=0;resizeParent=1;resizeParentMax=0;resizeLast=0;collapsible=1;marginBottom=0;whiteSpace=wrap;html=1;" parent="1" vertex="1">
          <mxGeometry x="610" y="360" width="160" height="86" as="geometry" />
        </mxCell>
        <mxCell id="IECAxgHUItjXdqh7-dgC-14" value="+ field: type" style="text;strokeColor=none;fillColor=none;align=left;verticalAlign=top;spacingLeft=4;spacingRight=4;overflow=hidden;rotatable=0;points=[[0,0.5],[1,0.5]];portConstraint=eastwest;whiteSpace=wrap;html=1;" parent="IECAxgHUItjXdqh7-dgC-13" vertex="1">
          <mxGeometry y="26" width="160" height="26" as="geometry" />
        </mxCell>
        <mxCell id="IECAxgHUItjXdqh7-dgC-15" value="" style="line;strokeWidth=1;fillColor=none;align=left;verticalAlign=middle;spacingTop=-1;spacingLeft=3;spacingRight=3;rotatable=0;labelPosition=right;points=[];portConstraint=eastwest;strokeColor=inherit;" parent="IECAxgHUItjXdqh7-dgC-13" vertex="1">
          <mxGeometry y="52" width="160" height="8" as="geometry" />
        </mxCell>
        <mxCell id="IECAxgHUItjXdqh7-dgC-16" value="+ method(type): type" style="text;strokeColor=none;fillColor=none;align=left;verticalAlign=top;spacingLeft=4;spacingRight=4;overflow=hidden;rotatable=0;points=[[0,0.5],[1,0.5]];portConstraint=eastwest;whiteSpace=wrap;html=1;" parent="IECAxgHUItjXdqh7-dgC-13" vertex="1">
          <mxGeometry y="60" width="160" height="26" as="geometry" />
        </mxCell>
        <mxCell id="IECAxgHUItjXdqh7-dgC-18" value="Convert_Publisher" style="swimlane;fontStyle=1;align=center;verticalAlign=top;childLayout=stackLayout;horizontal=1;startSize=26;horizontalStack=0;resizeParent=1;resizeParentMax=0;resizeLast=0;collapsible=1;marginBottom=0;whiteSpace=wrap;html=1;" parent="1" vertex="1">
          <mxGeometry x="60" y="-148" width="160" height="86" as="geometry" />
        </mxCell>
        <mxCell id="IECAxgHUItjXdqh7-dgC-19" value="+ field: type" style="text;strokeColor=none;fillColor=none;align=left;verticalAlign=top;spacingLeft=4;spacingRight=4;overflow=hidden;rotatable=0;points=[[0,0.5],[1,0.5]];portConstraint=eastwest;whiteSpace=wrap;html=1;" parent="IECAxgHUItjXdqh7-dgC-18" vertex="1">
          <mxGeometry y="26" width="160" height="26" as="geometry" />
        </mxCell>
        <mxCell id="IECAxgHUItjXdqh7-dgC-65" value="" style="endArrow=diamondThin;endFill=0;endSize=24;html=1;rounded=0;exitX=0;exitY=0.5;exitDx=0;exitDy=0;" parent="IECAxgHUItjXdqh7-dgC-18" source="IECAxgHUItjXdqh7-dgC-23" edge="1">
          <mxGeometry width="160" relative="1" as="geometry">
            <mxPoint y="51" as="sourcePoint" />
            <mxPoint x="160" y="51" as="targetPoint" />
          </mxGeometry>
        </mxCell>
        <mxCell id="IECAxgHUItjXdqh7-dgC-20" value="" style="line;strokeWidth=1;fillColor=none;align=left;verticalAlign=middle;spacingTop=-1;spacingLeft=3;spacingRight=3;rotatable=0;labelPosition=right;points=[];portConstraint=eastwest;strokeColor=inherit;" parent="IECAxgHUItjXdqh7-dgC-18" vertex="1">
          <mxGeometry y="52" width="160" height="8" as="geometry" />
        </mxCell>
        <mxCell id="IECAxgHUItjXdqh7-dgC-21" value="+ method(type): type" style="text;strokeColor=none;fillColor=none;align=left;verticalAlign=top;spacingLeft=4;spacingRight=4;overflow=hidden;rotatable=0;points=[[0,0.5],[1,0.5]];portConstraint=eastwest;whiteSpace=wrap;html=1;" parent="IECAxgHUItjXdqh7-dgC-18" vertex="1">
          <mxGeometry y="60" width="160" height="26" as="geometry" />
        </mxCell>
        <mxCell id="IECAxgHUItjXdqh7-dgC-22" value="&lt;div&gt;&amp;lt;&amp;lt;interface&amp;gt;&amp;gt;&lt;/div&gt;Convert_Subcriber" style="swimlane;fontStyle=1;align=center;verticalAlign=top;childLayout=stackLayout;horizontal=1;startSize=44;horizontalStack=0;resizeParent=1;resizeParentMax=0;resizeLast=0;collapsible=1;marginBottom=0;whiteSpace=wrap;html=1;" parent="1" vertex="1">
          <mxGeometry x="400" y="-148" width="160" height="104" as="geometry" />
        </mxCell>
        <mxCell id="IECAxgHUItjXdqh7-dgC-23" value="+ field: type" style="text;strokeColor=none;fillColor=none;align=left;verticalAlign=top;spacingLeft=4;spacingRight=4;overflow=hidden;rotatable=0;points=[[0,0.5],[1,0.5]];portConstraint=eastwest;whiteSpace=wrap;html=1;" parent="IECAxgHUItjXdqh7-dgC-22" vertex="1">
          <mxGeometry y="44" width="160" height="26" as="geometry" />
        </mxCell>
        <mxCell id="IECAxgHUItjXdqh7-dgC-24" value="" style="line;strokeWidth=1;fillColor=none;align=left;verticalAlign=middle;spacingTop=-1;spacingLeft=3;spacingRight=3;rotatable=0;labelPosition=right;points=[];portConstraint=eastwest;strokeColor=inherit;" parent="IECAxgHUItjXdqh7-dgC-22" vertex="1">
          <mxGeometry y="70" width="160" height="8" as="geometry" />
        </mxCell>
        <mxCell id="IECAxgHUItjXdqh7-dgC-25" value="+ method(type): type" style="text;strokeColor=none;fillColor=none;align=left;verticalAlign=top;spacingLeft=4;spacingRight=4;overflow=hidden;rotatable=0;points=[[0,0.5],[1,0.5]];portConstraint=eastwest;whiteSpace=wrap;html=1;" parent="IECAxgHUItjXdqh7-dgC-22" vertex="1">
          <mxGeometry y="78" width="160" height="26" as="geometry" />
        </mxCell>
        <mxCell id="IECAxgHUItjXdqh7-dgC-26" value="&lt;div&gt;&amp;lt;&amp;lt;interface&amp;gt;&amp;gt;&lt;/div&gt;&lt;div&gt;Convert_CommandProcessor&lt;/div&gt;" style="swimlane;fontStyle=1;align=center;verticalAlign=top;childLayout=stackLayout;horizontal=1;startSize=40;horizontalStack=0;resizeParent=1;resizeParentMax=0;resizeLast=0;collapsible=1;marginBottom=0;whiteSpace=wrap;html=1;" parent="1" vertex="1">
          <mxGeometry x="230" y="360" width="200" height="100" as="geometry" />
        </mxCell>
        <mxCell id="IECAxgHUItjXdqh7-dgC-27" value="+ field: type" style="text;strokeColor=none;fillColor=none;align=left;verticalAlign=top;spacingLeft=4;spacingRight=4;overflow=hidden;rotatable=0;points=[[0,0.5],[1,0.5]];portConstraint=eastwest;whiteSpace=wrap;html=1;" parent="IECAxgHUItjXdqh7-dgC-26" vertex="1">
          <mxGeometry y="40" width="200" height="26" as="geometry" />
        </mxCell>
        <mxCell id="IECAxgHUItjXdqh7-dgC-28" value="" style="line;strokeWidth=1;fillColor=none;align=left;verticalAlign=middle;spacingTop=-1;spacingLeft=3;spacingRight=3;rotatable=0;labelPosition=right;points=[];portConstraint=eastwest;strokeColor=inherit;" parent="IECAxgHUItjXdqh7-dgC-26" vertex="1">
          <mxGeometry y="66" width="200" height="8" as="geometry" />
        </mxCell>
        <mxCell id="IECAxgHUItjXdqh7-dgC-29" value="+ method(type): type" style="text;strokeColor=none;fillColor=none;align=left;verticalAlign=top;spacingLeft=4;spacingRight=4;overflow=hidden;rotatable=0;points=[[0,0.5],[1,0.5]];portConstraint=eastwest;whiteSpace=wrap;html=1;" parent="IECAxgHUItjXdqh7-dgC-26" vertex="1">
          <mxGeometry y="74" width="200" height="26" as="geometry" />
        </mxCell>
        <mxCell id="IECAxgHUItjXdqh7-dgC-30" value="Convert_CtoF_Command" style="swimlane;fontStyle=1;align=center;verticalAlign=top;childLayout=stackLayout;horizontal=1;startSize=26;horizontalStack=0;resizeParent=1;resizeParentMax=0;resizeLast=0;collapsible=1;marginBottom=0;whiteSpace=wrap;html=1;" parent="1" vertex="1">
          <mxGeometry x="-30" y="190" width="200" height="86" as="geometry" />
        </mxCell>
        <mxCell id="IECAxgHUItjXdqh7-dgC-31" value="+ field: type" style="text;strokeColor=none;fillColor=none;align=left;verticalAlign=top;spacingLeft=4;spacingRight=4;overflow=hidden;rotatable=0;points=[[0,0.5],[1,0.5]];portConstraint=eastwest;whiteSpace=wrap;html=1;" parent="IECAxgHUItjXdqh7-dgC-30" vertex="1">
          <mxGeometry y="26" width="200" height="26" as="geometry" />
        </mxCell>
        <mxCell id="IECAxgHUItjXdqh7-dgC-32" value="" style="line;strokeWidth=1;fillColor=none;align=left;verticalAlign=middle;spacingTop=-1;spacingLeft=3;spacingRight=3;rotatable=0;labelPosition=right;points=[];portConstraint=eastwest;strokeColor=inherit;" parent="IECAxgHUItjXdqh7-dgC-30" vertex="1">
          <mxGeometry y="52" width="200" height="8" as="geometry" />
        </mxCell>
        <mxCell id="IECAxgHUItjXdqh7-dgC-33" value="+ method(type): type" style="text;strokeColor=none;fillColor=none;align=left;verticalAlign=top;spacingLeft=4;spacingRight=4;overflow=hidden;rotatable=0;points=[[0,0.5],[1,0.5]];portConstraint=eastwest;whiteSpace=wrap;html=1;" parent="IECAxgHUItjXdqh7-dgC-30" vertex="1">
          <mxGeometry y="60" width="200" height="26" as="geometry" />
        </mxCell>
        <mxCell id="IECAxgHUItjXdqh7-dgC-34" value="Convert_FtoC_Command" style="swimlane;fontStyle=1;align=center;verticalAlign=top;childLayout=stackLayout;horizontal=1;startSize=26;horizontalStack=0;resizeParent=1;resizeParentMax=0;resizeLast=0;collapsible=1;marginBottom=0;whiteSpace=wrap;html=1;" parent="1" vertex="1">
          <mxGeometry x="415" y="200" width="200" height="86" as="geometry" />
        </mxCell>
        <mxCell id="IECAxgHUItjXdqh7-dgC-35" value="+ field: type" style="text;strokeColor=none;fillColor=none;align=left;verticalAlign=top;spacingLeft=4;spacingRight=4;overflow=hidden;rotatable=0;points=[[0,0.5],[1,0.5]];portConstraint=eastwest;whiteSpace=wrap;html=1;" parent="IECAxgHUItjXdqh7-dgC-34" vertex="1">
          <mxGeometry y="26" width="200" height="26" as="geometry" />
        </mxCell>
        <mxCell id="IECAxgHUItjXdqh7-dgC-36" value="" style="line;strokeWidth=1;fillColor=none;align=left;verticalAlign=middle;spacingTop=-1;spacingLeft=3;spacingRight=3;rotatable=0;labelPosition=right;points=[];portConstraint=eastwest;strokeColor=inherit;" parent="IECAxgHUItjXdqh7-dgC-34" vertex="1">
          <mxGeometry y="52" width="200" height="8" as="geometry" />
        </mxCell>
        <mxCell id="IECAxgHUItjXdqh7-dgC-37" value="+ method(type): type" style="text;strokeColor=none;fillColor=none;align=left;verticalAlign=top;spacingLeft=4;spacingRight=4;overflow=hidden;rotatable=0;points=[[0,0.5],[1,0.5]];portConstraint=eastwest;whiteSpace=wrap;html=1;" parent="IECAxgHUItjXdqh7-dgC-34" vertex="1">
          <mxGeometry y="60" width="200" height="26" as="geometry" />
        </mxCell>
        <mxCell id="IECAxgHUItjXdqh7-dgC-38" value="Extends" style="endArrow=block;endSize=16;endFill=0;html=1;rounded=0;exitX=0.5;exitY=0;exitDx=0;exitDy=0;entryX=0.5;entryY=0.992;entryDx=0;entryDy=0;entryPerimeter=0;" parent="1" source="IECAxgHUItjXdqh7-dgC-9" target="IECAxgHUItjXdqh7-dgC-21" edge="1">
          <mxGeometry width="160" relative="1" as="geometry">
            <mxPoint x="290" y="50" as="sourcePoint" />
            <mxPoint x="450" y="50" as="targetPoint" />
          </mxGeometry>
        </mxCell>
        <mxCell id="IECAxgHUItjXdqh7-dgC-39" value="&lt;p style=&quot;margin:0px;margin-top:4px;text-align:center;&quot;&gt;&lt;b&gt;javax.swing&lt;/b&gt;&lt;/p&gt;&lt;p style=&quot;margin:0px;margin-top:4px;text-align:center;&quot;&gt;&lt;b&gt;JFrame&lt;/b&gt;&lt;/p&gt;&lt;hr size=&quot;1&quot; style=&quot;border-style:solid;&quot;&gt;&lt;p style=&quot;margin:0px;margin-left:4px;&quot;&gt;+ field: Type&lt;/p&gt;&lt;hr size=&quot;1&quot; style=&quot;border-style:solid;&quot;&gt;&lt;p style=&quot;margin:0px;margin-left:4px;&quot;&gt;+ method(): Type&lt;/p&gt;" style="verticalAlign=top;align=left;overflow=fill;html=1;whiteSpace=wrap;" parent="1" vertex="1">
          <mxGeometry x="720" y="-40" width="120" height="90" as="geometry" />
        </mxCell>
        <mxCell id="IECAxgHUItjXdqh7-dgC-46" value="" style="endArrow=open;endFill=1;endSize=12;html=1;rounded=0;entryX=1;entryY=0.5;entryDx=0;entryDy=0;exitX=0;exitY=0.5;exitDx=0;exitDy=0;" parent="1" source="IECAxgHUItjXdqh7-dgC-2" target="IECAxgHUItjXdqh7-dgC-10" edge="1">
          <mxGeometry width="160" relative="1" as="geometry">
            <mxPoint x="290" y="160" as="sourcePoint" />
            <mxPoint x="450" y="160" as="targetPoint" />
          </mxGeometry>
        </mxCell>
        <mxCell id="IECAxgHUItjXdqh7-dgC-47" value="Associaction" style="text;html=1;align=center;verticalAlign=middle;resizable=0;points=[];autosize=1;strokeColor=none;fillColor=none;" parent="1" vertex="1">
          <mxGeometry x="260" y="58" width="90" height="30" as="geometry" />
        </mxCell>
        <mxCell id="IECAxgHUItjXdqh7-dgC-48" value="&lt;p style=&quot;margin:0px;margin-top:4px;text-align:center;&quot;&gt;&lt;i&gt;&amp;lt;&amp;lt;Interface&amp;gt;&amp;gt;&lt;/i&gt;&lt;br&gt;&lt;b&gt;java.awt.event.ActionListener&lt;/b&gt;&lt;/p&gt;&lt;hr size=&quot;1&quot; style=&quot;border-style:solid;&quot;&gt;&lt;p style=&quot;margin:0px;margin-left:4px;&quot;&gt;+ field1: Type&lt;br&gt;+ field2: Type&lt;/p&gt;&lt;hr size=&quot;1&quot; style=&quot;border-style:solid;&quot;&gt;&lt;p style=&quot;margin:0px;margin-left:4px;&quot;&gt;+ actionPerformed(ActionEvent): void&lt;br&gt;+ method2(Type, Type): Type&lt;/p&gt;" style="verticalAlign=top;align=left;overflow=fill;html=1;whiteSpace=wrap;" parent="1" vertex="1">
          <mxGeometry x="220" y="575" width="220" height="140" as="geometry" />
        </mxCell>
        <mxCell id="IECAxgHUItjXdqh7-dgC-49" value="" style="endArrow=block;dashed=1;endFill=0;endSize=12;html=1;rounded=0;entryX=0;entryY=0;entryDx=0;entryDy=0;exitX=1.01;exitY=1.085;exitDx=0;exitDy=0;exitPerimeter=0;" parent="1" source="IECAxgHUItjXdqh7-dgC-33" target="IECAxgHUItjXdqh7-dgC-26" edge="1">
          <mxGeometry width="160" relative="1" as="geometry">
            <mxPoint x="530" y="115" as="sourcePoint" />
            <mxPoint x="586" y="46" as="targetPoint" />
          </mxGeometry>
        </mxCell>
        <mxCell id="IECAxgHUItjXdqh7-dgC-50" value="" style="endArrow=open;endFill=1;endSize=12;html=1;rounded=0;exitX=1.005;exitY=-0.146;exitDx=0;exitDy=0;exitPerimeter=0;entryX=-0.01;entryY=0.4;entryDx=0;entryDy=0;entryPerimeter=0;" parent="1" source="IECAxgHUItjXdqh7-dgC-8" edge="1">
          <mxGeometry width="160" relative="1" as="geometry">
            <mxPoint x="260" y="605" as="sourcePoint" />
            <mxPoint x="228" y="432" as="targetPoint" />
          </mxGeometry>
        </mxCell>
        <mxCell id="IECAxgHUItjXdqh7-dgC-51" value="Association" style="text;html=1;align=center;verticalAlign=middle;resizable=0;points=[];autosize=1;strokeColor=none;fillColor=none;" parent="1" vertex="1">
          <mxGeometry x="50" y="431" width="80" height="30" as="geometry" />
        </mxCell>
        <mxCell id="IECAxgHUItjXdqh7-dgC-53" value="" style="endArrow=block;dashed=1;endFill=0;endSize=12;html=1;rounded=0;entryX=1;entryY=0;entryDx=0;entryDy=0;exitX=-0.01;exitY=0.885;exitDx=0;exitDy=0;exitPerimeter=0;" parent="1" source="IECAxgHUItjXdqh7-dgC-16" target="IECAxgHUItjXdqh7-dgC-48" edge="1">
          <mxGeometry width="160" relative="1" as="geometry">
            <mxPoint x="-53" y="474" as="sourcePoint" />
            <mxPoint x="-85" y="575" as="targetPoint" />
          </mxGeometry>
        </mxCell>
        <mxCell id="IECAxgHUItjXdqh7-dgC-56" value="Association" style="text;html=1;align=center;verticalAlign=middle;resizable=0;points=[];autosize=1;strokeColor=none;fillColor=none;" parent="1" vertex="1">
          <mxGeometry x="480" y="401" width="80" height="30" as="geometry" />
        </mxCell>
        <mxCell id="IECAxgHUItjXdqh7-dgC-60" value="" style="endArrow=open;endFill=1;endSize=12;html=1;rounded=0;exitX=0;exitY=0.5;exitDx=0;exitDy=0;entryX=1.022;entryY=0.587;entryDx=0;entryDy=0;entryPerimeter=0;" parent="1" source="IECAxgHUItjXdqh7-dgC-16" edge="1">
          <mxGeometry width="160" relative="1" as="geometry">
            <mxPoint x="51" y="441" as="sourcePoint" />
            <mxPoint x="434.4000000000001" y="437.6100000000001" as="targetPoint" />
          </mxGeometry>
        </mxCell>
        <mxCell id="IECAxgHUItjXdqh7-dgC-61" value="" style="endArrow=block;dashed=1;endFill=0;endSize=12;html=1;rounded=0;entryX=1;entryY=0;entryDx=0;entryDy=0;exitX=0.99;exitY=1.069;exitDx=0;exitDy=0;exitPerimeter=0;" parent="1" source="IECAxgHUItjXdqh7-dgC-37" target="IECAxgHUItjXdqh7-dgC-26" edge="1">
          <mxGeometry width="160" relative="1" as="geometry">
            <mxPoint x="92" y="288" as="sourcePoint" />
            <mxPoint x="240" y="370" as="targetPoint" />
          </mxGeometry>
        </mxCell>
        <mxCell id="IECAxgHUItjXdqh7-dgC-62" value="" style="endArrow=block;dashed=1;endFill=0;endSize=12;html=1;rounded=0;entryX=0;entryY=0;entryDx=0;entryDy=0;exitX=0.992;exitY=1.108;exitDx=0;exitDy=0;exitPerimeter=0;" parent="1" source="IECAxgHUItjXdqh7-dgC-8" edge="1">
          <mxGeometry width="160" relative="1" as="geometry">
            <mxPoint x="21.11999999999989" y="666.3899999999999" as="sourcePoint" />
            <mxPoint x="220" y="575" as="targetPoint" />
          </mxGeometry>
        </mxCell>
        <mxCell id="IECAxgHUItjXdqh7-dgC-63" value="" style="endArrow=block;dashed=1;endFill=0;endSize=12;html=1;rounded=0;entryX=0.43;entryY=1.023;entryDx=0;entryDy=0;entryPerimeter=0;" parent="1" source="IECAxgHUItjXdqh7-dgC-1" target="IECAxgHUItjXdqh7-dgC-25" edge="1">
          <mxGeometry width="160" relative="1" as="geometry">
            <mxPoint x="320" y="130" as="sourcePoint" />
            <mxPoint x="470" y="-30" as="targetPoint" />
          </mxGeometry>
        </mxCell>
        <mxCell id="IECAxgHUItjXdqh7-dgC-64" value="Extends" style="endArrow=block;endSize=16;endFill=0;html=1;rounded=0;exitX=1;exitY=0.5;exitDx=0;exitDy=0;entryX=0;entryY=1;entryDx=0;entryDy=0;" parent="1" source="IECAxgHUItjXdqh7-dgC-2" target="IECAxgHUItjXdqh7-dgC-39" edge="1">
          <mxGeometry width="160" relative="1" as="geometry">
            <mxPoint x="150" y="50" as="sourcePoint" />
            <mxPoint x="150" y="-52" as="targetPoint" />
          </mxGeometry>
        </mxCell>
        <mxCell id="IECAxgHUItjXdqh7-dgC-66" value="&lt;span style=&quot;text-wrap: wrap;&quot;&gt;Aggreagation&lt;/span&gt;" style="text;html=1;align=center;verticalAlign=middle;resizable=0;points=[];autosize=1;strokeColor=none;fillColor=none;" parent="1" vertex="1">
          <mxGeometry x="255" y="-120" width="90" height="30" as="geometry" />
        </mxCell>
        <mxCell id="IECAxgHUItjXdqh7-dgC-67" value="" style="endArrow=open;endFill=1;endSize=12;html=1;rounded=0;entryX=0.44;entryY=1.1;entryDx=0;entryDy=0;exitX=0.5;exitY=0;exitDx=0;exitDy=0;entryPerimeter=0;" parent="1" source="IECAxgHUItjXdqh7-dgC-30" target="IECAxgHUItjXdqh7-dgC-12" edge="1">
          <mxGeometry width="160" relative="1" as="geometry">
            <mxPoint x="400" y="89" as="sourcePoint" />
            <mxPoint x="230" y="89" as="targetPoint" />
          </mxGeometry>
        </mxCell>
        <mxCell id="IECAxgHUItjXdqh7-dgC-69" value="" style="endArrow=open;endFill=1;endSize=12;html=1;rounded=0;entryX=0.985;entryY=1.069;entryDx=0;entryDy=0;exitX=0;exitY=0;exitDx=0;exitDy=0;entryPerimeter=0;" parent="1" source="IECAxgHUItjXdqh7-dgC-34" target="IECAxgHUItjXdqh7-dgC-12" edge="1">
          <mxGeometry width="160" relative="1" as="geometry">
            <mxPoint x="80" y="200" as="sourcePoint" />
            <mxPoint x="140" y="139" as="targetPoint" />
          </mxGeometry>
        </mxCell>
        <mxCell id="IECAxgHUItjXdqh7-dgC-70" value="&lt;span style=&quot;color: rgba(0, 0, 0, 0); font-family: monospace; font-size: 0px; text-align: start;&quot;&gt;%3CmxGraphModel%3E%3Croot%3E%3CmxCell%20id%3D%220%22%2F%3E%3CmxCell%20id%3D%221%22%20parent%3D%220%22%2F%3E%3CmxCell%20id%3D%222%22%20value%3D%22Associaction%22%20style%3D%22text%3Bhtml%3D1%3Balign%3Dcenter%3BverticalAlign%3Dmiddle%3Bresizable%3D0%3Bpoints%3D%5B%5D%3Bautosize%3D1%3BstrokeColor%3Dnone%3BfillColor%3Dnone%3B%22%20vertex%3D%221%22%20parent%3D%221%22%3E%3CmxGeometry%20x%3D%22170%22%20y%3D%2258%22%20width%3D%2290%22%20height%3D%2230%22%20as%3D%22geometry%22%2F%3E%3C%2FmxCell%3E%3C%2Froot%3E%3C%2FmxGraphModel%3E&lt;/span&gt;&lt;span style=&quot;color: rgba(0, 0, 0, 0); font-family: monospace; font-size: 0px; text-align: start;&quot;&gt;%3CmxGraphModel%3E%3Croot%3E%3CmxCell%20id%3D%220%22%2F%3E%3CmxCell%20id%3D%221%22%20parent%3D%220%22%2F%3E%3CmxCell%20id%3D%222%22%20value%3D%22Associaction%22%20style%3D%22text%3Bhtml%3D1%3Balign%3Dcenter%3BverticalAlign%3Dmiddle%3Bresizable%3D0%3Bpoints%3D%5B%5D%3Bautosize%3D1%3BstrokeColor%3Dnone%3BfillColor%3Dnone%3B%22%20vertex%3D%221%22%20parent%3D%221%22%3E%3CmxGeometry%20x%3D%22170%22%20y%3D%2258%22%20width%3D%2290%22%20height%3D%2230%22%20as%3D%22geometry%22%2F%3E%3C%2FmxCell%3E%3C%2Froot%3E%3C%2FmxGraphModel%3E&lt;/span&gt;" style="text;html=1;align=center;verticalAlign=middle;resizable=0;points=[];autosize=1;strokeColor=none;fillColor=none;" parent="1" vertex="1">
          <mxGeometry x="80" y="138" width="20" height="30" as="geometry" />
        </mxCell>
        <mxCell id="IECAxgHUItjXdqh7-dgC-71" value="Associaction" style="text;html=1;align=center;verticalAlign=middle;resizable=0;points=[];autosize=1;strokeColor=none;fillColor=none;" parent="1" vertex="1">
          <mxGeometry x="10" y="138" width="90" height="30" as="geometry" />
        </mxCell>
        <mxCell id="IECAxgHUItjXdqh7-dgC-72" value="Associaction" style="text;html=1;align=center;verticalAlign=middle;resizable=0;points=[];autosize=1;strokeColor=none;fillColor=none;" parent="1" vertex="1">
          <mxGeometry x="350" y="160" width="90" height="30" as="geometry" />
        </mxCell>
        <mxCell id="M5xZ3yYWcDmYHc1269NC-1" value="" style="endArrow=open;startArrow=circlePlus;endFill=0;startFill=0;endSize=8;html=1;rounded=0;exitX=1;exitY=0.5;exitDx=0;exitDy=0;entryX=0.5;entryY=0;entryDx=0;entryDy=0;" parent="1" source="IECAxgHUItjXdqh7-dgC-4" target="IECAxgHUItjXdqh7-dgC-13" edge="1">
          <mxGeometry width="160" relative="1" as="geometry">
            <mxPoint x="280" y="310" as="sourcePoint" />
            <mxPoint x="440" y="310" as="targetPoint" />
            <Array as="points">
              <mxPoint x="670" y="210" />
            </Array>
          </mxGeometry>
        </mxCell>
        <mxCell id="M5xZ3yYWcDmYHc1269NC-2" value="" style="endArrow=open;startArrow=circlePlus;endFill=0;startFill=0;endSize=8;html=1;rounded=0;exitX=1;exitY=0;exitDx=0;exitDy=0;entryX=0;entryY=0;entryDx=0;entryDy=0;" parent="1" source="IECAxgHUItjXdqh7-dgC-1" target="IECAxgHUItjXdqh7-dgC-5" edge="1">
          <mxGeometry width="160" relative="1" as="geometry">
            <mxPoint x="280" y="110" as="sourcePoint" />
            <mxPoint x="440" y="110" as="targetPoint" />
            <Array as="points">
              <mxPoint x="630" y="-190" />
              <mxPoint x="360" y="-190" />
              <mxPoint x="-120" y="-190" />
            </Array>
          </mxGeometry>
        </mxCell>
      </root>
    </mxGraphModel>
  </diagram>
</mxfile>
